<svg viewBox="0 0 24 24" fill="none" xmlns="http://www.w3.org/2000/svg">
  <rect width="24" height="24" rx="5" fill="#000000"/>
  <path d="M15.769 12.642c-.017-1.876 1.531-2.777 1.6-2.82-.872-1.275-2.229-1.45-2.713-1.47-1.154-.117-2.253.68-2.839.68-.586 0-1.491-.663-2.45-.645-1.261.018-2.424.733-3.073 1.863-1.311 2.274-.336 5.645.942 7.491.625.903 1.37 1.918 2.348 1.882.942-.038 1.298-.61 2.437-.61 1.139 0 1.46.61 2.455.591.1014-.016 1.806-.733 2.414-1.623-1.537-.922-1.821-2.747-1.821-2.805-.004-.037-.004-.072 0-.11v-.424zm-1.67-4.965c.52-.631.871-1.506.775-2.379-.749.03-1.658.5-2.196 1.131-.483.558-.906 1.449-.793 2.304.838.065 1.694-.426 2.214-1.056z" fill="white"/>
  <text x="12" y="21" text-anchor="middle" fill="white" font-size="4" font-weight="500" font-family="Arial">tv+</text>
</svg>