<svg viewBox="0 0 24 24" fill="none" xmlns="http://www.w3.org/2000/svg">
  <path d="M2.167 10.576c0-3.593 2.905-6.506 6.489-6.506h6.688c3.584 0 6.489 2.913 6.489 6.506 0 3.594-2.905 6.507-6.489 6.507H8.656c-3.584 0-6.489-2.913-6.489-6.507z" fill="#113CCF"/>
  <path d="M4.5 10.5c0 .552.448 1 1 1h13c.552 0 1-.448 1-1s-.448-1-1-1h-13c-.552 0-1 .448-1 1z" fill="white"/>
  <path d="M8 8c0-.552.448-1 1-1h6c.552 0 1 .448 1 1s-.448 1-1 1H9c-.552 0-1-.448-1-1z" fill="white"/>
  <path d="M6 13c0-.552.448-1 1-1h10c.552 0 1 .448 1 1s-.448 1-1 1H7c-.552 0-1-.448-1-1z" fill="white"/>
  <text x="12" y="19" text-anchor="middle" fill="#113CCF" font-size="4" font-weight="bold">+</text>
</svg>