<svg viewBox="0 0 24 24" fill="none" xmlns="http://www.w3.org/2000/svg">
  <path d="M1.958 16.576c-.369.293-.074.695.332.512 2.497-1.181 7.777-3.773 12.389-3.773 4.574 0 7.588 1.524 8.114 1.914.373.276.583-.136.332-.512-1.047-1.572-4.097-2.912-8.446-2.912-4.312 0-9.724 2.166-12.721 4.771z" fill="#00A8E1"/>
  <path d="M22.242 18.106c-.213-.346-1.329-.414-2.445-.284-1.116.13-2.119.475-1.906.821.107.173.35.13.883.048.532-.082 2.077-.344 2.558.176.481.519-.53 2.531-.722 2.877-.192.346.064.433.346.216.281-.217 1.5-1.507 1.5-2.853 0-.519-.106-.828-.214-1.001z" fill="#00A8E1"/>
  <path d="M12 4C7.582 4 4 6.691 4 10s3.582 6 8 6 8-2.691 8-6-3.582-6-8-6zm0 9.5c-2.761 0-5-1.567-5-3.5s2.239-3.5 5-3.5 5 1.567 5 3.5-2.239 3.5-5 3.5z" fill="#00A8E1"/>
  <path d="M9.5 9L11 12h2l1.5-3h-1.5l-.75 1.5L11.5 9h-2z" fill="#00A8E1"/>
</svg>