<svg viewBox="0 0 24 24" fill="none" xmlns="http://www.w3.org/2000/svg">
  <circle cx="12" cy="12" r="12" fill="#1DB954"/>
  <path d="M17.9 10.9c-3.3-2-8.8-2.2-11.9-1.2-.5.2-1-.2-1.1-.7-.2-.5.2-1 .7-1.1 3.6-1.1 9.6-.9 13.4 1.4.5.3.6.9.3 1.3-.3.4-.9.5-1.4.3zm-.2 3c-.2.4-.7.5-1.1.3-2.8-1.7-7-2.2-10.3-1.2-.4.1-.9-.1-1-.5-.1-.4.1-.9.5-1 3.7-1.1 8.4-.6 11.6 1.4.4.2.5.7.3 1zm-1.3 2.9c-.2.3-.6.4-.9.2-2.4-1.5-5.5-1.8-9.1-1-.3.1-.7-.1-.8-.5-.1-.3.1-.7.5-.8 3.9-.9 7.3-.5 10 1.1.4.3.5.7.3 1z" fill="white"/>
</svg>