<svg viewBox="0 0 24 24" fill="none" xmlns="http://www.w3.org/2000/svg">
  <rect width="24" height="24" rx="5" fill="#000000"/>
  <path d="M16.6 5.82c-.51-.64-.82-1.44-.82-2.32h-2.98v12.72c0 1.32-1.08 2.4-2.4 2.4s-2.4-1.08-2.4-2.4 1.08-2.4 2.4-2.4c.24 0 .48.04.7.1V10.8c-.23-.03-.47-.05-.7-.05-2.98 0-5.4 2.42-5.4 5.4s2.42 5.4 5.4 5.4 5.4-2.42 5.4-5.4V9.4c1.1.8 2.4 1.28 3.8 1.36V7.78c-1.52-.08-2.88-.86-3.8-1.96z" fill="#FF0050"/>
  <path d="M16.6 5.82c.92 1.1 2.28 1.88 3.8 1.96v2.98c-1.4-.08-2.7-.56-3.8-1.36v6.32c0 2.98-2.42 5.4-5.4 5.4s-5.4-2.42-5.4-5.4 2.42-5.4 5.4-5.4c.23 0 .47.02.7.05v3.12c-.22-.06-.46-.1-.7-.1-1.32 0-2.4 1.08-2.4 2.4s1.08 2.4 2.4 2.4 2.4-1.08 2.4-2.4V3.5h2.98c0 .88.31 1.68.82 2.32z" fill="#00F2EA"/>
</svg>